<?xml version="1.0" standalone="no"?>
<!DOCTYPE svg PUBLIC "-//W3C//DTD SVG 20010904//EN"
 "http://www.w3.org/TR/2001/REC-SVG-20010904/DTD/svg10.dtd">
<svg version="1.0" xmlns="http://www.w3.org/2000/svg"
 width="512.000000pt" height="512.000000pt" viewBox="0 0 512.000000 512.000000"
 preserveAspectRatio="xMidYMid meet">
<metadata>
Created by potrace 1.11, written by Peter Selinger 2001-2013
</metadata>
<g transform="translate(0.000000,512.000000) scale(0.100000,-0.100000)"
fill="#000000" stroke="none">
<path d="M4255 4228 c-28 -16 -40 -30 -58 -64 -22 -44 -25 -70 -26 -244 l-1
-156 -182 -1 c-218 -1 -326 -8 -442 -28 -339 -59 -645 -213 -981 -494 -127
-106 -182 -157 -520 -490 -356 -350 -366 -360 -573 -532 -131 -110 -370 -244
-532 -299 -203 -69 -289 -80 -641 -83 -183 -2 -186 -2 -226 -29 -67 -44 -72
-66 -72 -293 0 -207 2 -219 47 -267 42 -45 79 -51 307 -51 233 1 359 8 477 28
15 3 43 7 61 10 61 11 222 56 307 87 225 81 528 260 724 428 149 127 290 261
577 549 339 341 516 499 666 598 196 128 382 198 583 218 59 6 409 9 415 3 2
-2 5 -82 7 -178 3 -151 6 -180 23 -214 38 -76 103 -100 185 -70 35 13 79 52
205 180 528 537 511 519 522 561 14 55 8 90 -21 131 -14 20 -166 179 -338 355
-213 217 -326 326 -353 338 -45 21 -110 24 -140 7z"/>
<path d="M142 3919 c-46 -6 -84 -30 -116 -73 -20 -26 -21 -41 -21 -244 0 -211
1 -218 23 -250 44 -61 66 -66 277 -69 348 -4 444 -16 635 -81 135 -45 374
-177 488 -268 13 -11 49 -39 80 -64 32 -24 59 -47 62 -50 3 -3 43 -39 90 -80
47 -41 95 -85 108 -97 13 -13 25 -23 27 -23 2 0 107 102 232 226 l228 225 -65
61 c-351 326 -578 489 -856 612 -165 73 -352 129 -511 152 -26 3 -56 8 -66 10
-84 15 -530 25 -615 13z"/>
<path d="M2593 2278 c-122 -121 -219 -226 -216 -232 5 -11 118 -111 197 -174
22 -19 57 -47 76 -62 172 -142 437 -292 639 -359 208 -71 360 -92 679 -94
l202 -1 1 -150 c0 -83 2 -164 4 -179 6 -48 46 -117 76 -132 39 -21 103 -19
147 4 39 20 661 647 695 701 13 20 21 51 21 80 1 64 -12 80 -381 455 -273 276
-315 315 -358 330 -62 21 -114 13 -148 -23 -45 -47 -55 -94 -57 -273 0 -90 -3
-165 -5 -167 -4 -5 -391 -2 -430 3 -16 2 -46 7 -65 10 -19 4 -46 9 -60 11
-103 18 -289 99 -432 189 -74 47 -230 169 -308 242 -25 24 -47 43 -50 43 -3 0
-105 -100 -227 -222z"/>
</g>
</svg>
